<svg width="14" height="16" viewBox="0 0 14 16" fill="none" xmlns="http://www.w3.org/2000/svg">
<path d="M3.16667 15.05C2.70833 15.05 2.31611 14.8869 1.99 14.5608C1.66389 14.2347 1.50056 13.8422 1.5 13.3833V2.54999C1.26389 2.54999 1.06611 2.46999 0.906667 2.30999C0.747223 2.14999 0.667223 1.95221 0.666667 1.71665C0.666111 1.4811 0.746112 1.28332 0.906667 1.12332C1.06722 0.963321 1.265 0.883321 1.5 0.883321H4.83333C4.83333 0.64721 4.91333 0.449432 5.07333 0.289988C5.23333 0.130543 5.43111 0.0505433 5.66667 0.0499878H9C9.23611 0.0499878 9.43417 0.129988 9.59417 0.289988C9.75417 0.449988 9.83389 0.647766 9.83333 0.883321H13.1667C13.4028 0.883321 13.6008 0.963321 13.7608 1.12332C13.9208 1.28332 14.0006 1.4811 14 1.71665C13.9994 1.95221 13.9194 2.15027 13.76 2.31082C13.6006 2.47138 13.4028 2.5511 13.1667 2.54999V13.3833C13.1667 13.8417 13.0036 14.2342 12.6775 14.5608C12.3514 14.8875 11.9589 15.0505 11.5 15.05H3.16667ZM11.5 2.54999H3.16667V13.3833H11.5V2.54999ZM5.66667 11.7167C5.90278 11.7167 6.10083 11.6367 6.26083 11.4767C6.42083 11.3167 6.50056 11.1189 6.5 10.8833V5.04999C6.5 4.81388 6.42 4.6161 6.26 4.45665C6.1 4.29721 5.90222 4.21721 5.66667 4.21665C5.43111 4.2161 5.23333 4.2961 5.07333 4.45665C4.91333 4.61721 4.83333 4.81499 4.83333 5.04999V10.8833C4.83333 11.1194 4.91333 11.3175 5.07333 11.4775C5.23333 11.6375 5.43111 11.7172 5.66667 11.7167ZM9 11.7167C9.23611 11.7167 9.43417 11.6367 9.59417 11.4767C9.75417 11.3167 9.83389 11.1189 9.83333 10.8833V5.04999C9.83333 4.81388 9.75333 4.6161 9.59333 4.45665C9.43333 4.29721 9.23556 4.21721 9 4.21665C8.76445 4.2161 8.56667 4.2961 8.40667 4.45665C8.24667 4.61721 8.16667 4.81499 8.16667 5.04999V10.8833C8.16667 11.1194 8.24667 11.3175 8.40667 11.4775C8.56667 11.6375 8.76445 11.7172 9 11.7167Z" fill="#28A1E1"/>
</svg>
