<svg width="16" height="16" viewBox="0 0 16 16" fill="none" xmlns="http://www.w3.org/2000/svg">
<path d="M2.33332 13.3833H3.52082L11.6667 5.23749L10.4792 4.04999L2.33332 12.1958V13.3833ZM0.666656 15.05V11.5083L11.6667 0.529154C11.8333 0.376377 12.0175 0.258321 12.2192 0.174988C12.4208 0.0916545 12.6325 0.0499878 12.8542 0.0499878C13.0758 0.0499878 13.2911 0.0916545 13.5 0.174988C13.7089 0.258321 13.8894 0.383321 14.0417 0.549988L15.1875 1.71665C15.3542 1.86943 15.4758 2.04999 15.5525 2.25832C15.6292 2.46665 15.6672 2.67499 15.6667 2.88332C15.6667 3.10554 15.6286 3.31749 15.5525 3.51915C15.4764 3.72082 15.3547 3.90471 15.1875 4.07082L4.20832 15.05H0.666656ZM11.0625 4.65415L10.4792 4.04999L11.6667 5.23749L11.0625 4.65415Z" fill="#28A1E1"/>
</svg>
