<svg width="14" height="13" viewBox="0 0 14 13" fill="none" xmlns="http://www.w3.org/2000/svg">
<path d="M6.99998 13L6.03331 12.1333C4.91109 11.1222 3.98331 10.25 3.24998 9.51667C2.51665 8.78334 1.93331 8.12489 1.49998 7.54134C1.06665 6.95823 0.76398 6.42223 0.59198 5.93334C0.41998 5.44445 0.333757 4.94445 0.333313 4.43334C0.333313 3.38889 0.683313 2.51667 1.38331 1.81667C2.08331 1.11667 2.95554 0.76667 3.99998 0.76667C4.57776 0.76667 5.12776 0.888892 5.64998 1.13334C6.1722 1.37778 6.6222 1.72223 6.99998 2.16667C7.37776 1.72223 7.82776 1.37778 8.34998 1.13334C8.8722 0.888892 9.4222 0.76667 9.99998 0.76667C11.0444 0.76667 11.9166 1.11667 12.6166 1.81667C13.3166 2.51667 13.6666 3.38889 13.6666 4.43334C13.6666 4.94445 13.5806 5.44445 13.4086 5.93334C13.2366 6.42223 12.9338 6.95823 12.5 7.54134C12.0666 8.12489 11.4833 8.78334 10.75 9.51667C10.0166 10.25 9.08887 11.1222 7.96665 12.1333L6.99998 13Z" fill="#DD0404"/>
</svg>
