<svg width="14" height="13" viewBox="0 0 14 13" fill="none" xmlns="http://www.w3.org/2000/svg">
<path d="M6.99998 13L6.03331 12.1333C4.91109 11.1222 3.98331 10.25 3.24998 9.51666C2.51665 8.78333 1.93331 8.12489 1.49998 7.54133C1.06665 6.95822 0.76398 6.42222 0.59198 5.93333C0.41998 5.44444 0.333757 4.94444 0.333313 4.43333C0.333313 3.38888 0.683313 2.51666 1.38331 1.81666C2.08331 1.11666 2.95554 0.766663 3.99998 0.766663C4.57776 0.766663 5.12776 0.888885 5.64998 1.13333C6.1722 1.37777 6.6222 1.72222 6.99998 2.16666C7.37776 1.72222 7.82776 1.37777 8.34998 1.13333C8.8722 0.888885 9.4222 0.766663 9.99998 0.766663C11.0444 0.766663 11.9166 1.11666 12.6166 1.81666C13.3166 2.51666 13.6666 3.38888 13.6666 4.43333C13.6666 4.94444 13.5806 5.44444 13.4086 5.93333C13.2366 6.42222 12.9338 6.95822 12.5 7.54133C12.0666 8.12489 11.4833 8.78333 10.75 9.51666C10.0166 10.25 9.08887 11.1222 7.96665 12.1333L6.99998 13Z" fill="#E2E0E0"/>
</svg>
